<svg width="563px" height="703px" viewBox="0 0 563 703" version="1.1" xmlns="http://www.w3.org/2000/svg" xmlns:xlink="http://www.w3.org/1999/xlink">
    <g stroke="none" stroke-width="1" fill="none" fill-rule="evenodd">
        <g transform="translate(-1426.000000, -273.000000)">
            <g transform="translate(1426.000000, 273.000000)">
                <path d="M562,237.566406 L562,697 C562,699.761424 559.761424,702 557,702 L199.601563,702 L562,237.566406 Z" fill="#F6F6F6"></path>
                <path d="M271.389342,610 L311.184741,559 L536.527344,559 L536.527344,610 L271.389342,610 Z M357.222556,500 L397.017955,449 L515.105469,449 L515.105469,500 L357.222556,500 Z M443.05577,390 L482.851169,339 L515.105469,339 L515.105469,390 L443.05577,390 Z" fill="#C4C4C4"></path>
                <polygon fill="#286496" points="505.490902 702.082031 562.055268 702.082031 562.100789 545.643942 442.64113 390.885922 355.331553 504.028579"></polygon>
                <path d="M554.5,259.369628 L214.966923,694.5 L554.5,694.5 L554.5,259.369628 Z" stroke="#9A9A9A" stroke-width="15"></path>
                <path d="M7.5,7.5 L7.5,694.503935 L159.15438,694.583522 L386.049849,399.43429 L554.315089,180.146688 L554.287646,152.171073 L476.173209,75.1439418 L417.101594,7.5 L7.5,7.5 Z" stroke="#9A9A9A" stroke-width="15" fill="#F6F6F6"></path>
                <path d="M79.5,180 L79.5,129 L479.867188,129 L479.867188,180 L79.5,180 Z M79.5,290 L79.5,239 L479.867188,239 L479.867188,290 L79.5,290 Z M79.5,390 L79.5,339 L399.710938,339 L399.710938,390 L79.5,390 Z M79.5,500 L79.5,449 L327.351562,449 L327.351562,500 L79.5,500 Z M79.5,610 L79.5,559 L235.183194,559 L235.183194,610 L79.5,610 Z" fill="#C4C4C4" fill-rule="nonzero"></path>
                <polygon fill="#23AF23" points="174.849308 702 0 702 407.499908 140.760114 407.5 159.486297 561.916383 159.486297 562.023975 186.404326"></polygon>
                <polygon fill="#286496" points="0.264629708 89.0050232 220.510028 361.19611 308.750478 249.191432 109.194545 0.259590527 0.264629708 0.259590527"></polygon>
                <polygon fill="#FFFFFF" points="415 15 552 152 415 152"></polygon>
                <path d="M422.5,22.6320056 L422.5,144.5 L543.914954,144.5 L422.5,22.6320056 Z M421.019752,0 L562,145 L562,159.5 L407.5,159.5 L407.5,0.259590527 L421.019752,0 Z" fill="#9A9A9A" fill-rule="nonzero"></path>
            </g>
        </g>
    </g>
</svg>